<?xml version="1.0" encoding="UTF-8"?>
<svg viewBox="0 0 800 540" xmlns="http://www.w3.org/2000/svg" preserveAspectRatio="xMidYMid meet">
  <defs>
    <linearGradient id="bg" x1="0" y1="0" x2="1" y2="1">
      <stop offset="0%" stop-color="#3ba3ff"/>
      <stop offset="100%" stop-color="#1e78e7"/>
    </linearGradient>
    <linearGradient id="panel" x1="0" y1="0" x2="0" y2="1">
      <stop offset="0%" stop-color="#ffffff"/>
      <stop offset="100%" stop-color="#f5faff"/>
    </linearGradient>
    <linearGradient id="accent" x1="0" y1="0" x2="1" y2="0">
      <stop offset="0%" stop-color="#60a5fa"/>
      <stop offset="100%" stop-color="#a78bfa"/>
    </linearGradient>
  </defs>
  <rect x="0" y="0" width="800" height="540" fill="url(#bg)"/>
  <g opacity="0.16" fill="#8bd1ff">
    <rect x="40" y="44" width="8" height="8"/><rect x="56" y="44" width="8" height="8"/><rect x="72" y="44" width="8" height="8"/>
    <rect x="40" y="60" width="8" height="8"/><rect x="56" y="60" width="8" height="8"/><rect x="72" y="60" width="8" height="8"/>
    <rect x="680" y="420" width="8" height="8"/><rect x="696" y="420" width="8" height="8"/><rect x="712" y="420" width="8" height="8"/>
    <rect x="680" y="436" width="8" height="8"/><rect x="696" y="436" width="8" height="8"/><rect x="712" y="436" width="8" height="8"/>
  </g>
  <g transform="translate(80,90)">
    <rect x="0" y="0" width="520" height="320" rx="14" fill="url(#panel)" stroke="#e5e7eb"/>
    <g transform="translate(36,64)">
      <rect x="0" y="60" width="36" height="100" fill="#60a5fa" rx="6"/>
      <rect x="56" y="20" width="36" height="140" fill="#a78bfa" rx="6"/>
      <rect x="112" y="90" width="36" height="70" fill="#22c55e" rx="6"/>
      <rect x="168" y="8" width="36" height="152" fill="#f59e0b" rx="6"/>
    </g>
    <g transform="translate(280,64)">
      <rect x="0" y="0" width="224" height="152" rx="10" fill="#ffffff" stroke="#e5e7eb"/>
      <path d="M12,120 L48,96 L84,108 L120,76 L156,88 L192,54 L220,70" fill="none" stroke="#2563eb" stroke-width="2"/>
      <circle cx="48" cy="96" r="3" fill="#2563eb"/>
      <circle cx="120" cy="76" r="3" fill="#2563eb"/>
      <circle cx="192" cy="54" r="3" fill="#2563eb"/>
    </g>
    <g transform="translate(36,214)">
      <circle cx="44" cy="44" r="44" fill="#eef2ff" stroke="#c7d2fe"/>
      <path d="M44,44 L44,4 A40,40 0 0 1 80,22 Z" fill="#60a5fa"/>
      <path d="M44,44 L80,22 A40,40 0 0 1 66,80 Z" fill="#22c55e"/>
      <path d="M44,44 L66,80 A40,40 0 0 1 44,84 Z" fill="#f59e0b"/>
    </g>
    <g transform="translate(280,236)">
      <rect x="0" y="0" width="224" height="88" rx="10" fill="#ffffff" stroke="#e5e7eb"/>
      <rect x="12" y="16" width="160" height="12" rx="6" fill="#e5efff"/>
      <rect x="12" y="38" width="120" height="10" rx="5" fill="#f0f9ff"/>
      <rect x="12" y="58" width="140" height="10" rx="5" fill="#f8fafc"/>
      <rect x="180" y="14" width="32" height="14" rx="7" fill="url(#accent)" opacity=".9"/>
    </g>
  </g>
</svg>